{
	"asset":{
		"generator":"Khronos glTF Blender I/O v4.0.44",
		"version":"2.0"
	},
	"scene":0,
	"scenes":[
		{
			"name":"Scene",
			"nodes":[
				0
			]
		}
	],
	"nodes":[
		{
			"mesh":0,
			"name":"lungs",
			"rotation":[
				0,
				-0.9999511241912842,
				0,
				0.009887101128697395
			],
			"scale":[
				17.755128860473633,
				17.755126953125,
				17.755128860473633
			],
			"translation":[
				-0.014057561755180359,
				0.3585454523563385,
				0.0015206439420580864
			]
		}
	],
	"materials":[
		{
			"doubleSided":true,
			"name":"Material.001",
			"pbrMetallicRoughness":{
				"baseColorFactor":[
					0.8007017374038696,
					0.10136065632104874,
					0.1706291288137436,
					1
				],
				"metallicFactor":0,
				"roughnessFactor":0.5
			}
		},
		{
			"doubleSided":true,
			"name":"Material.002",
			"pbrMetallicRoughness":{
				"baseColorFactor":[
					0.8004156351089478,
					0.34230899810791016,
					0.3973507881164551,
					1
				],
				"metallicFactor":0,
				"roughnessFactor":0.5
			}
		}
	],
	"meshes":[
		{
			"name":"Cylinder.003",
			"primitives":[
				{
					"attributes":{
						"POSITION":0,
						"NORMAL":1,
						"TEXCOORD_0":2
					},
					"indices":3,
					"material":0
				},
				{
					"attributes":{
						"POSITION":4,
						"NORMAL":5,
						"TEXCOORD_0":6
					},
					"indices":7,
					"material":1
				}
			]
		}
	],
	"accessors":[
		{
			"bufferView":0,
			"componentType":5126,
			"count":242216,
			"max":[
				0.04080796241760254,
				0.0150765934959054,
				0.06363969296216965
			],
			"min":[
				-0.03919203579425812,
				-0.1367393434047699,
				-0.06089499220252037
			],
			"type":"VEC3"
		},
		{
			"bufferView":1,
			"componentType":5126,
			"count":242216,
			"type":"VEC3"
		},
		{
			"bufferView":2,
			"componentType":5126,
			"count":242216,
			"type":"VEC2"
		},
		{
			"bufferView":3,
			"componentType":5125,
			"count":841728,
			"type":"SCALAR"
		},
		{
			"bufferView":4,
			"componentType":5126,
			"count":63135,
			"max":[
				0.003040662268176675,
				-0.001346975564956665,
				0.03526847064495087
			],
			"min":[
				-0.003959338180720806,
				-0.07134697586297989,
				-0.03473152965307236
			],
			"type":"VEC3"
		},
		{
			"bufferView":5,
			"componentType":5126,
			"count":63135,
			"type":"VEC3"
		},
		{
			"bufferView":6,
			"componentType":5126,
			"count":63135,
			"type":"VEC2"
		},
		{
			"bufferView":7,
			"componentType":5123,
			"count":351690,
			"type":"SCALAR"
		}
	],
	"bufferViews":[
		{
			"buffer":0,
			"byteLength":2906592,
			"byteOffset":0,
			"target":34962
		},
		{
			"buffer":0,
			"byteLength":2906592,
			"byteOffset":2906592,
			"target":34962
		},
		{
			"buffer":0,
			"byteLength":1937728,
			"byteOffset":5813184,
			"target":34962
		},
		{
			"buffer":0,
			"byteLength":3366912,
			"byteOffset":7750912,
			"target":34963
		},
		{
			"buffer":0,
			"byteLength":757620,
			"byteOffset":11117824,
			"target":34962
		},
		{
			"buffer":0,
			"byteLength":757620,
			"byteOffset":11875444,
			"target":34962
		},
		{
			"buffer":0,
			"byteLength":505080,
			"byteOffset":12633064,
			"target":34962
		},
		{
			"buffer":0,
			"byteLength":703380,
			"byteOffset":13138144,
			"target":34963
		}
	],
	"buffers":[
		{
			"byteLength":13841524,
			"uri":"pulmao1.bin"
		}
	]
}
